<svg clip-rule="evenodd" fill-rule="evenodd" stroke-linejoin="round" stroke-miterlimit="2" viewBox="0 0 394 32" xmlns="http://www.w3.org/2000/svg"><g fill="#ec008c" fill-rule="nonzero"><path d="m58.198 20.132c0 1.222-.287 2.188-.86 2.899-.574.71-1.459 1.065-2.656 1.065-1.196 0-2.063-.355-2.599-1.065-.536-.711-.804-1.677-.804-2.899v-14.922h-21.495v-5.21h-7.826v5.21h-6.933v-5.21h-7.825v17.525h-7.2v7.122h7.2v7.041h7.825v-7.041h6.933v7.041h7.826v-7.041h8.513v-7.122h-8.513v-4.727h13.23v7.334c0 2.543.486 4.7 1.459 6.47.972 1.771 2.324 3.104 4.057 4.002 1.733.897 3.721 1.346 5.965 1.346s4.276-.449 6.096-1.346c1.82-.898 3.254-2.238 4.301-4.021 1.047-1.782 1.57-3.932 1.57-6.451v-14.922h-8.264zm-36.24-2.607h-6.933v-4.727h6.933z"/><path d="m89.424 6.501c-2.069-1.16-4.351-1.739-6.843-1.739-2.494 0-4.781.579-6.863 1.739-2.082 1.159-3.734 2.774-4.955 4.843-1.222 2.069-1.833 4.4-1.833 6.993s.611 4.924 1.833 6.993c1.221 2.07 2.873 3.69 4.955 4.862s4.369 1.758 6.863 1.758c2.468 0 4.743-.586 6.825-1.758 2.081-1.172 3.727-2.792 4.936-4.862 1.209-2.069 1.814-4.4 1.814-6.993s-.605-4.924-1.814-6.993-2.849-3.684-4.918-4.843zm-3.029 16.118c-.897 1.06-2.169 1.59-3.814 1.59-1.671 0-2.955-.53-3.852-1.59-.898-1.059-1.347-2.487-1.347-4.282 0-1.82.449-3.259 1.347-4.319.897-1.06 2.181-1.59 3.852-1.59 1.645 0 2.917.53 3.814 1.59.898 1.06 1.346 2.499 1.346 4.319 0 1.795-.448 3.223-1.346 4.282z"/><path d="m119.698 18.599c.984-1.371 1.477-2.942 1.477-4.712 0-1.646-.381-3.123-1.141-4.432-.761-1.309-1.901-2.343-3.422-3.104-1.521-.76-3.353-1.141-5.497-1.141h-12.341v26.478h8.302v-9.499l5.011 9.499h9.125l-5.759-10.135c1.845-.598 3.259-1.583 4.245-2.954zm-7.536-2.487c-.399.362-.997.542-1.795.542h-3.291v-4.488h3.291c.772 0 1.365.2 1.776.599.412.399.617.948.617 1.645 0 .773-.2 1.341-.598 1.702z"/><path d="m124.204 5.21h8.302v26.478h-8.302z"/><path d="m159.732 11.568c-1.123-1.994-2.726-3.553-4.806-4.675-2.082-1.122-4.507-1.683-7.274-1.683h-11.032v26.478h11.032c2.767 0 5.192-.58 7.274-1.739 2.08-1.159 3.683-2.749 4.806-4.768 1.122-2.02 1.683-4.288 1.683-6.807 0-2.543-.561-4.811-1.683-6.806zm-8.377 11.182c-1.098 1.023-2.581 1.533-4.451 1.533h-1.982v-11.817h1.982c1.87 0 3.353.511 4.451 1.533 1.096 1.023 1.645 2.481 1.645 4.375 0 1.895-.549 3.354-1.645 4.376z"/><path d="m169.605 5.21-9.687 26.478h8.714l1.309-4.002h8.826l1.309 4.002h8.751l-9.649-26.478zm2.356 16.231 2.393-7.367 2.393 7.367z"/><path d="m200.458 22.264h6.619c-1.173 1.546-2.718 2.318-4.638 2.318-2.019 0-3.515-.51-4.488-1.533-.972-1.022-1.458-2.568-1.458-4.637 0-1.795.436-3.21 1.309-4.245.873-1.034 2.107-1.552 3.703-1.552.847 0 1.57.144 2.168.43.599.287 1.06.692 1.384 1.216h8.751c-.399-2.867-1.689-5.136-3.87-6.807-2.183-1.67-5.006-2.505-8.471-2.505-2.718 0-5.086.567-7.106 1.701-2.019 1.135-3.571 2.725-4.656 4.768-1.084 2.045-1.626 4.376-1.626 6.994s.542 4.949 1.626 6.993c1.085 2.045 2.643 3.634 4.675 4.768 2.032 1.135 4.419 1.702 7.162 1.702 3.091 0 5.647-.704 7.667-2.113 2.019-1.408 3.602-3.098 4.749-5.067v-8.303h-13.5z"/><path d="m225.626 5.21h-8.303v26.478h16.306v-6.283h-8.003z"/><path d="m236.621 5.21h8.302v26.478h-8.302z"/><path d="m264.95 16.935c-1.11-.586-2.513-1.179-4.208-1.777-1.346-.473-2.337-.891-2.973-1.253-.636-.361-.953-.828-.953-1.402 0-.424.112-.742.336-.954.224-.211.511-.318.86-.318 1.022 0 1.595.699 1.72 2.095h8.938c-.174-2.768-1.196-4.887-3.066-6.358s-4.389-2.206-7.554-2.206c-1.921 0-3.647.312-5.18.934-1.533.624-2.743 1.54-3.628 2.749-.885 1.21-1.327 2.674-1.327 4.395 0 1.795.411 3.253 1.234 4.375.822 1.122 1.789 1.97 2.898 2.543 1.109.574 2.499 1.135 4.17 1.683 1.421.474 2.45.892 3.085 1.253.636.362.954.854.954 1.477 0 .424-.131.748-.392.972-.263.225-.605.337-1.029.337-1.222 0-1.895-.76-2.019-2.281h-8.826c.174 2.867 1.289 5.043 3.347 6.526 2.057 1.483 4.668 2.225 7.835 2.225 2.068 0 3.852-.356 5.347-1.066 1.496-.711 2.637-1.677 3.422-2.898.786-1.222 1.178-2.593 1.178-4.114 0-1.77-.417-3.222-1.253-4.357-.835-1.134-1.807-1.994-2.916-2.58z"/><path d="m284.228 12.615c.947 0 1.789.243 2.524.729.736.487 1.303 1.166 1.702 2.039h8.751c-.374-2.095-1.128-3.927-2.263-5.498-1.134-1.571-2.605-2.786-4.413-3.646-1.807-.86-3.858-1.29-6.151-1.29-2.668 0-4.987.567-6.957 1.701-1.969 1.135-3.484 2.725-4.543 4.768-1.06 2.045-1.59 4.376-1.59 6.994s.53 4.949 1.59 6.993c1.059 2.045 2.574 3.634 4.543 4.768 1.97 1.135 4.289 1.702 6.957 1.702 2.293 0 4.344-.43 6.151-1.29 1.808-.86 3.279-2.076 4.413-3.646 1.135-1.571 1.889-3.404 2.263-5.498h-8.751c-.399.873-.966 1.552-1.702 2.038-.735.486-1.577.73-2.524.73-1.396 0-2.5-.524-3.31-1.571s-1.215-2.456-1.215-4.226.405-3.179 1.215-4.226 1.914-1.571 3.31-1.571z"/><path d="m316.015 14.747h-7.891v-9.537h-8.302v26.478h8.302v-10.322h7.891v10.322h8.302v-26.478h-8.302z"/><path d="m328.057 31.688h17.652v-6.619h-9.35v-3.74h8.228v-6.246h-8.228v-3.291h9.35v-6.582h-17.652z"/><path d="m365.23 21.105-5.834-15.895h-10.172v26.478h8.302v-13.201l4.077 13.201h7.105l4.077-13.201v13.201h8.265v-26.478h-10.135z"/><path d="m384.788 5.21h8.303v26.478h-8.303z"/></g></svg>